<svg height="1300" viewBox="0 0 653.52082 343.95834" width="2470" xmlns="http://www.w3.org/2000/svg"><g transform="translate(0 46.95835)"><path d="m0-46.95835h653.52083v343.95833h-653.52083z" fill="#bf0a30" stroke-width=".264583"/><g fill="#fff" transform="matrix(.26458333 0 0 .26458333 0 -46.95835)"><path d="m0 100h2470v100h-2470z"/><path d="m0 300h2470v100h-2470z"/><path d="m0 500h2470v100h-2470z"/></g><g fill="#fff" transform="matrix(.26458333 0 0 .26458333 0 111.79165)"><path d="m0 100h2470v100h-2470z"/><path d="m0 300h2470v100h-2470z"/><path d="m0 500h2470v100h-2470z"/></g><g transform="matrix(.26458333 0 0 .26458333 -1122.0979 739.95169)"><path d="m0-46.95835h261.40833v185.20833h-261.40833z" fill="#002868" stroke-width=".264583" transform="matrix(3.7795276 0 0 3.7795276 4241 -2796.6678)"/><g fill="#fff"><path d="m4353.054-2899.996 12.4558 38.6307 40.59-.086-32.8914 23.7841 12.6248 38.5757-32.7837-23.9309-32.7863 23.9271 12.6292-38.5743-32.8886-23.7879 40.59.09z"/><path d="m4480.37-2899.996 12.4558 38.6307 40.59-.086-32.8914 23.7841 12.6248 38.5757-32.7837-23.9309-32.7863 23.9271 12.6292-38.5743-32.8886-23.7879 40.59.09z"/><path d="m4607.681-2899.996 12.4558 38.6307 40.59-.086-32.8914 23.7841 12.6248 38.5757-32.7837-23.9309-32.7863 23.9271 12.6292-38.5743-32.8886-23.7879 40.59.09z"/><path d="m4734.9974-2899.9964 12.4558 38.6307 40.59-.086-32.8914 23.7841 12.6248 38.5757-32.7837-23.9309-32.7863 23.9271 12.6292-38.5743-32.8886-23.7879 40.59.09z"/><path d="m4862.3192-2899.996 12.4558 38.6307 40.59-.086-32.8914 23.7841 12.6248 38.5757-32.7837-23.9309-32.7863 23.9271 12.6292-38.5743-32.8886-23.7879 40.59.09z"/><path d="m4989.6351-2899.996 12.4558 38.6307 40.59-.086-32.8914 23.7841 12.6248 38.5757-32.7837-23.9309-32.7863 23.9271 12.6292-38.5743-32.8886-23.7879 40.59.09z"/><path d="m5116.9461-2899.996 12.4558 38.6307 40.59-.086-32.8914 23.7841 12.6248 38.5757-32.7837-23.9309-32.7863 23.9271 12.6292-38.5743-32.8886-23.7879 40.59.09z"/><path d="m5116.9461-2747.5466 12.4558 38.6307 40.59-.086-32.8914 23.7841 12.6248 38.5757-32.7837-23.9309-32.7863 23.9271 12.6292-38.5743-32.8886-23.7879 40.59.09z"/><path d="m4989.6351-2747.5462 12.4558 38.6307 40.59-.086-32.8914 23.7841 12.6248 38.5757-32.7837-23.9309-32.7863 23.9271 12.6292-38.5743-32.8886-23.7879 40.59.09z"/><path d="m4862.3187-2747.5469 12.4558 38.6307 40.59-.086-32.8914 23.7841 12.6248 38.5757-32.7837-23.9309-32.7863 23.9271 12.6292-38.5743-32.8886-23.7879 40.59.09z"/><path d="m4734.9974-2747.5465 12.4558 38.6307 40.59-.086-32.8914 23.7841 12.6248 38.5757-32.7837-23.9309-32.7863 23.9271 12.6292-38.5743-32.8886-23.7879 40.59.09z"/><path d="m4607.681-2747.5465 12.4558 38.6307 40.59-.086-32.8914 23.7841 12.6248 38.5757-32.7837-23.9309-32.7863 23.9271 12.6292-38.5743-32.8886-23.7879 40.59.09z"/><path d="m4480.37-2747.5465 12.4558 38.6307 40.59-.086-32.8914 23.7841 12.6248 38.5757-32.7837-23.9309-32.7863 23.9271 12.6292-38.5743-32.8886-23.7879 40.59.09z"/><path d="m4353.054-2747.5466 12.4558 38.6307 40.59-.086-32.8914 23.7841 12.6248 38.5757-32.7837-23.9309-32.7863 23.9271 12.6292-38.5743-32.8886-23.7879 40.59.09z"/><path d="m4353.0541-2599.0109 12.4558 38.6307 40.59-.086-32.8914 23.7841 12.6248 38.5757-32.7837-23.9309-32.7863 23.9271 12.6292-38.5743-32.8886-23.7879 40.59.09z"/><path d="m4480.37-2599.0109 12.4558 38.6307 40.59-.086-32.8914 23.7841 12.6248 38.5757-32.7837-23.9309-32.7863 23.9271 12.6292-38.5743-32.8886-23.7879 40.59.09z"/><path d="m4607.681-2599.0109 12.4558 38.6307 40.59-.086-32.8914 23.7841 12.6248 38.5757-32.7837-23.9309-32.7863 23.9271 12.6292-38.5743-32.8886-23.7879 40.59.09z"/><path d="m4734.9974-2599.0109 12.4558 38.6307 40.59-.086-32.8914 23.7841 12.6248 38.5757-32.7837-23.9309-32.7863 23.9271 12.6292-38.5743-32.8886-23.7879 40.59.09z"/><path d="m4862.3191-2599.0113 12.4558 38.6307 40.59-.086-32.8914 23.7841 12.6248 38.5757-32.7837-23.9309-32.7863 23.9271 12.6292-38.5743-32.8886-23.7879 40.59.09z"/><path d="m4989.6351-2599.0109 12.4558 38.6307 40.59-.086-32.8914 23.7841 12.6248 38.5757-32.7837-23.9309-32.7863 23.9271 12.6292-38.5743-32.8886-23.7879 40.59.09z"/><path d="m5116.9515-2599.0105 12.4558 38.6307 40.59-.086-32.8914 23.7841 12.6248 38.5757-32.7837-23.9309-32.7863 23.9271 12.6292-38.5743-32.8886-23.7879 40.59.09z"/><path d="m5116.9515-2449.2017 12.4558 38.6307 40.59-.086-32.8914 23.7841 12.6248 38.5757-32.7837-23.9309-32.7863 23.9271 12.6292-38.5743-32.8886-23.7879 40.59.09z"/><path d="m4989.6351-2449.202 12.4558 38.6307 40.59-.086-32.8914 23.7841 12.6248 38.5757-32.7837-23.9309-32.7863 23.9271 12.6292-38.5743-32.8886-23.7879 40.59.09z"/><path d="m4862.3192-2449.202 12.4558 38.6307 40.59-.086-32.8914 23.7841 12.6248 38.5757-32.7837-23.9309-32.7863 23.9271 12.6292-38.5743-32.8886-23.7879 40.59.09z"/><path d="m4734.9974-2449.2017 12.4558 38.6307 40.59-.086-32.8914 23.7841 12.6248 38.5757-32.7837-23.9309-32.7863 23.9271 12.6292-38.5743-32.8886-23.7879 40.59.09z"/><path d="m4607.681-2449.2021 12.4558 38.6307 40.59-.086-32.8914 23.7841 12.6248 38.5757-32.7837-23.9309-32.7863 23.9271 12.6292-38.5743-32.8886-23.7879 40.59.09z"/><path d="m4480.37-2449.202 12.4558 38.6307 40.59-.086-32.8914 23.7841 12.6248 38.5757-32.7837-23.9309-32.7863 23.9271 12.6292-38.5743-32.8886-23.7879 40.59.09z"/><path d="m4353.054-2449.202 12.4558 38.6307 40.59-.086-32.8914 23.7841 12.6248 38.5757-32.7837-23.9309-32.7863 23.9271 12.6292-38.5743-32.8886-23.7879 40.59.09z"/></g></g></g></svg>